HIERARCHY
ROOT hip
{
  OFFSET 0 0 0
  CHANNELS 6 Xposition Yposition Zposition Zrotation Yrotation Xrotation
  JOINT abdomen
  {
    OFFSET 0 20.6881 -0.73152
    CHANNELS 3 Zrotation Xrotation Yrotation
    JOINT chest
    {
      OFFSET 0 11.7043 -0.48768
      CHANNELS 3 Zrotation Xrotation Yrotation
      JOINT neck
      {
        OFFSET 0 22.1894 -2.19456
        CHANNELS 3 Zrotation Xrotation Yrotation
        JOINT head
        {
          OFFSET -0.24384 7.07133 1.2192
          CHANNELS 3 Zrotation Xrotation Yrotation
          JOINT leftEye
          {
            OFFSET 4.14528 8.04674 8.04672
            CHANNELS 3 Zrotation Xrotation Yrotation
            End Site
            {
              OFFSET 1 0 0
            }
          }
          JOINT rightEye
          {
            OFFSET -3.6576 8.04674 8.04672
            CHANNELS 3 Zrotation Xrotation Yrotation
            End Site
            {
              OFFSET 1 0 0
            }
          }
        }
      }
      JOINT rCollar
      {
        OFFSET -2.68224 19.2634 -4.8768
        CHANNELS 3 Zrotation Xrotation Yrotation
        JOINT rShldr
        {
          OFFSET -8.77824 -1.95073 1.46304
          CHANNELS 3 Zrotation Xrotation Yrotation
          JOINT rForeArm
          {
            OFFSET -28.1742 -1.7115 0.48768
            CHANNELS 3 Zrotation Xrotation Yrotation
            JOINT rHand
            {
              OFFSET -22.5879 0.773209 7.07136
              CHANNELS 3 Zrotation Xrotation Yrotation
              JOINT rThumb1
              {
                OFFSET -1.2192 -0.487915 3.41376
                CHANNELS 3 Zrotation Xrotation Yrotation
                JOINT rThumb2
                {
                  OFFSET -3.37035 -0.52449 3.41376
                  CHANNELS 3 Zrotation Xrotation Yrotation
                  End Site
                  {
                    OFFSET -1.78271 -1.18214 1.43049
                  }
                }
              }
              JOINT rIndex1
              {
                OFFSET -7.75947 0.938293 5.60832
                CHANNELS 3 Zrotation Xrotation Yrotation
                JOINT rIndex2
                {
                  OFFSET -2.54057 -0.884171 1.56538
                  CHANNELS 3 Zrotation Xrotation Yrotation
                  End Site
                  {
                    OFFSET -1.62519 -0.234802 1.16502
                  }
                }
              }
              JOINT rMid1
              {
                OFFSET -8.24714 1.18213 3.41376
                CHANNELS 3 Zrotation Xrotation Yrotation
                JOINT rMid2
                {
                  OFFSET -3.10165 -0.590103 1.0647
                  CHANNELS 3 Zrotation Xrotation Yrotation
                  End Site
                  {
                    OFFSET -2.48547 -0.328903 0.83742
                  }
                }
              }
              JOINT rRing1
              {
                OFFSET -8.82822 0.546677 1.51678
                CHANNELS 3 Zrotation Xrotation Yrotation
                JOINT rRing2
                {
                  OFFSET -2.60934 -0.819778 -0.0198488
                  CHANNELS 3 Zrotation Xrotation Yrotation
                  End Site
                  {
                    OFFSET -2.33842 -0.294052 0.168128
                  }
                }
              }
              JOINT rPinky1
              {
                OFFSET -8.27202 -0.0477905 -0.4584
                CHANNELS 3 Zrotation Xrotation Yrotation
                JOINT rPinky2
                {
                  OFFSET -1.82734 -0.647385 -0.700984
                  CHANNELS 3 Zrotation Xrotation Yrotation
                  End Site
                  {
                    OFFSET -1.69225 -0.51767 -0.607171
                  }
                }
              }
            }
          }
        }
      }
      JOINT lCollar
      {
        OFFSET 2.68224 19.2634 -4.8768
        CHANNELS 3 Zrotation Xrotation Yrotation
        JOINT lShldr
        {
          OFFSET 8.77824 -1.95073 1.46304
          CHANNELS 3 Zrotation Xrotation Yrotation
          JOINT lForeArm
          {
            OFFSET 28.1742 -1.7115 0.48768
            CHANNELS 3 Zrotation Xrotation Yrotation
            JOINT lHand
            {
              OFFSET 22.5879 0.773209 7.07136
              CHANNELS 3 Zrotation Xrotation Yrotation
              JOINT lThumb1
              {
                OFFSET 1.2192 -0.487915 3.41376
                CHANNELS 3 Zrotation Xrotation Yrotation
                JOINT lThumb2
                {
                  OFFSET 3.37035 -0.52449 3.41376
                  CHANNELS 3 Zrotation Xrotation Yrotation
                  End Site
                  {
                    OFFSET 1.78271 -1.18214 1.43049
                  }
                }
              }
              JOINT lIndex1
              {
                OFFSET 7.75947 0.938293 5.60832
                CHANNELS 3 Zrotation Xrotation Yrotation
                JOINT lIndex2
                {
                  OFFSET 2.54057 -0.884171 1.56538
                  CHANNELS 3 Zrotation Xrotation Yrotation
                  End Site
                  {
                    OFFSET 1.62519 -0.234802 1.16502
                  }
                }
              }
              JOINT lMid1
              {
                OFFSET 8.24714 1.18213 3.41376
                CHANNELS 3 Zrotation Xrotation Yrotation
                JOINT lMid2
                {
                  OFFSET 3.10165 -0.590103 1.0647
                  CHANNELS 3 Zrotation Xrotation Yrotation
                  End Site
                  {
                    OFFSET 2.48547 -0.328903 0.83742
                  }
                }
              }
              JOINT lRing1
              {
                OFFSET 8.82822 0.546677 1.51678
                CHANNELS 3 Zrotation Xrotation Yrotation
                JOINT lRing2
                {
                  OFFSET 2.60934 -0.819778 -0.0198488
                  CHANNELS 3 Zrotation Xrotation Yrotation
                  End Site
                  {
                    OFFSET 2.33842 -0.294052 0.168128
                  }
                }
              }
              JOINT lPinky1
              {
                OFFSET 8.27202 -0.0477905 -0.4584
                CHANNELS 3 Zrotation Xrotation Yrotation
                JOINT lPinky2
                {
                  OFFSET 1.82734 -0.647385 -0.700984
                  CHANNELS 3 Zrotation Xrotation Yrotation
                  End Site
                  {
                    OFFSET 1.69225 -0.51767 -0.607171
                  }
                }
              }
            }
          }
        }
      }
    }
  }
  JOINT rButtock
  {
    OFFSET -8.77824 4.35084 1.2192
    CHANNELS 3 Zrotation Xrotation Yrotation
    JOINT rThigh
    {
      OFFSET 0 -1.70687 -2.19456
      CHANNELS 3 Zrotation Xrotation Yrotation
      JOINT rShin
      {
        OFFSET 0 -36.8199 0.73152
        CHANNELS 3 Zrotation Xrotation Yrotation
        JOINT rFoot
        {
          OFFSET 0.73152 -45.1104 -5.12064
          CHANNELS 3 Zrotation Xrotation Yrotation
          End Site
          {
            OFFSET -1.1221 -3.69964 12.103
          }
        }
      }
    }
  }
  JOINT lButtock
  {
    OFFSET 8.77824 4.35084 1.2192
    CHANNELS 3 Zrotation Xrotation Yrotation
    JOINT lThigh
    {
      OFFSET 0 -1.70687 -2.19456
      CHANNELS 3 Zrotation Xrotation Yrotation
      JOINT lShin
      {
        OFFSET 0 -36.8199 0.73152
        CHANNELS 3 Zrotation Xrotation Yrotation
        JOINT lFoot
        {
          OFFSET -0.73152 -45.1104 -5.12064
          CHANNELS 3 Zrotation Xrotation Yrotation
          End Site
          {
            OFFSET 1.1221 -3.69964 12.103
          }
        }
      }
    }
  }
}
MOTION
Frames:	5
Frame Time:	0.03333
-21.224999999999998 67.9829 68.2161 0.989499 1.028433 5.543781 -8.791285 4.69793 -117.905284 2.226231 7.508218 100.892203 -0.78069 41.991737 175.268772 -6.001977 43.861351 125.309163 0.001089 0.0 0.002259 0.001089 0.0 0.002259 -14.147924 43.061649 15.996241 109.380736 -47.876558 49.136025 -68.870345 51.355283 93.89602 6.531842 -18.556988 1.974545 113.262533 -50.398625 54.829838 -33.472005 -6.230127 -12.103985 -0.328352 0.529936 0.184648 -161.486561 -13.560376 110.107905 68.987746 -80.152667 40.581995 4.085573 -3.164063 -0.224961 -77.743572 72.90248 95.870232 5.875184 1.781511 -4.384998 -135.458057 -12.621761 -132.838974 2.469938 -0.820724 -2.121321 13.743436 42.431655 -15.568802 -72.583357 1.575919 -42.871195 -172.823278 17.775456 -114.710654 -164.723263 -22.118183 -143.87809 -83.253755 -50.258159 -33.616236 24.027693 -10.462707 17.189763 173.600521 -52.692986 -119.892129 -79.667827 -67.160155 -25.349378 -173.123745 -66.297806 -137.614587 -179.842232 -48.676407 -141.057741 -0.002047 0.063779 -0.02041 151.319974 -72.676157 174.60083 -31.513161 83.082436 -6.647592 155.702242 35.930781 147.055206 179.994622 75.750028 0.003679 165.910112 7.263947 -89.679849 -84.461468 -1.073698 -95.837102 -149.393987 6.986403 173.000684 0.0 -0.000386 0.000503 4.668983 8.728644 -0.618194 -8.550371 35.985942 -36.285208 38.403766 22.997266 70.897384
-21.1942 67.9889 68.20439999999999 1.099893 0.983663 5.511306 -12.648765 7.554047 40.967863 1.650599 -12.338719 -57.271233 7.82188 31.256126 92.019731 -33.406156 8.744561 -153.673727 -0.002067 0.0 -0.00202 -0.002067 0.0 -0.00202 0.034798 -0.20939 -0.046876 -107.235049 -7.24997 -176.008535 -175.575391 -5.12526 -142.876357 -7.402868 24.170271 0.897168 -169.319059 -7.001169 89.92163 -77.635945 4.578764 26.402098 -77.66752 43.029222 64.53852 170.973886 -43.918759 107.037049 -0.220974 0.638162 0.123508 2.948865 0.845375 0.08385 0.005966 1.771563 0.555303 -156.483243 -46.641595 177.609335 -157.332053 57.246483 -150.51017 -147.98932 10.796838 -141.807427 9.652569 34.835916 -11.20025 -57.319684 22.155136 -41.099522 -142.55955 5.566932 -128.63891 -178.576644 18.486093 -148.098223 -81.276769 -49.994597 -32.240267 159.417143 -31.221887 -128.758868 0.327227 0.530127 -0.185404 -96.74258 -61.308186 -43.641197 139.240187 37.933892 -127.557937 4.692627 20.769504 -4.591166 -0.005048 1.771312 -0.556962 -6.772535 29.707253 -4.67253 146.207418 15.406911 142.728132 76.302524 -52.927035 75.868215 179.989891 75.749513 0.00892 165.742826 7.17336 -89.303079 -84.540447 -3.564686 -71.622938 -11.913254 22.059735 176.889765 -179.998641 75.749513 -0.0 -154.069343 82.469559 70.266821 46.306437 4.110651 142.292913 -103.985635 24.721929 -156.811042
-21.0507 67.9874 68.2183 0.908388 0.78975 5.552445 -11.060212 8.066569 -0.0 7.8246 -8.790002 -15.778784 7.606628 35.403366 115.60935 -32.092564 22.269136 -173.59734 -0.001438 0.0 -0.000227 -0.001197 0.0 -0.001421 -155.460307 -3.227915 161.777119 -59.762113 31.940695 18.794021 -146.032613 12.753511 -156.92144 3.419181 -9.333549 0.883982 -161.773588 0.529406 89.18096 -9.584027 -43.283264 11.153004 -18.64819 23.635126 12.970001 104.086528 -62.289284 52.07904 -10.975548 25.790003 7.639721 -150.621202 27.022963 136.402643 -145.120566 0.185598 -179.186172 11.904946 29.423558 -5.66092 -133.877637 -15.639307 -131.333782 -42.994587 -49.254736 -44.086144 158.513451 -30.701881 -167.039742 -134.361516 4.315766 160.572201 -176.646188 22.446416 -112.016075 -163.841312 -25.436332 -142.827329 0.490574 0.485088 -0.077633 123.2218 -15.15827 -110.472089 -112.658517 -76.2863 -61.487257 -27.382784 -19.676496 7.464324 82.839846 61.112682 -74.532471 17.923674 42.22908 -14.64422 -0.006422 0.876219 -0.273532 -6.837847 29.709494 -4.67949 -25.920379 79.093845 -10.827732 -21.161811 61.418259 -7.684013 -0.001482 0.000949 -0.001482 -35.267915 -62.70818 -19.36718 20.065224 73.574288 -83.013306 173.517589 -63.285162 -77.624784 0.001186 0.000949 0.000593 4.511734 6.419943 -180.0 5.336743 -50.639285 -1.636589 179.850045 -10.487252 126.449111
-20.9429 67.9897 68.23780000000001 1.022622 0.824743 5.541082 -8.992908 4.564435 -116.695644 2.301396 7.379814 99.934672 -0.762198 42.242079 176.650507 -4.512306 44.473065 123.40506 0.000193 0.0 0.000928 0.000193 0.0 0.000928 -143.33388 38.770719 147.773792 -83.303607 27.357581 63.824341 -155.563038 10.840489 -149.057389 -0.19286 2.02445 0.178831 93.028468 -51.083786 40.50087 -32.591542 2.167487 -9.591735 -0.327121 0.530018 0.186272 -6.848313 22.890139 6.6951 -160.674524 -6.667893 143.244151 -54.703345 61.676813 48.055975 -69.297226 72.946301 87.017221 5.86886 1.779277 -4.183002 0.097746 0.258296 0.092409 -152.249163 29.155359 -147.210697 129.782885 55.045175 -133.632048 -76.898738 -28.964375 -103.456746 -171.278691 38.90579 -116.910912 -165.710719 -21.266846 -143.867861 -178.618315 -18.759765 -89.038382 71.582529 6.991232 -19.384618 -5.920911 -10.174576 2.969923 -5.590711 10.006658 -1.30444 169.088772 -33.247376 -145.375823 -2.288147 2.415043 -0.676357 0.006319 3.559111 -1.119023 -9.997531 0.609441 -0.003482 86.001261 -50.499707 84.37116 21.257369 -38.624677 23.411158 -0.000395 -0.000502 0.000508 -38.728293 -63.501001 72.755175 78.025732 -10.516661 -173.653219 147.44705 58.155098 -59.443341 -0.000395 -0.000502 0.000508 4.473913 8.661474 -0.587051 2.388551 38.261874 46.711534 -119.381432 -8.110459 -15.052089
-20.8993 67.9987 68.1982 1.023692 0.89423 5.498445 -9.330119 7.127815 -52.228445 9.790388 -0.182022 35.725117 -11.150908 25.00276 -27.238917 23.596778 -18.282769 -28.648631 -0.001773 0.0 -0.00318 0.004489 0.0 0.000921 -6.029135 25.557125 7.219298 -110.500691 -13.740959 160.555984 112.774875 35.566975 -103.285795 -97.242662 74.803328 77.876781 1.578617 -1.564523 -0.220671 -146.100235 -55.682795 121.776897 -1.95799 3.105018 1.141645 -159.397028 -10.106557 110.093992 -86.295124 60.959538 77.857251 -172.364419 -32.373829 143.817521 0.006169 1.856331 0.583415 10.889193 -12.242199 -1.533814 0.465377 1.226488 0.428355 -156.060342 43.503569 -149.197096 -3.542006 -62.053058 13.039127 68.119102 -35.056667 110.40445 -8.527388 -24.342392 67.770959 -162.712108 -28.153228 -142.001731 174.193254 -11.857572 -89.868977 -148.773264 -45.607495 -100.109353 152.106278 -18.55682 -121.366446 4.926296 28.153567 1.868688 36.036704 51.722052 -29.834804 168.608741 -21.720611 -144.227869 -0.005432 1.687661 -0.529298 150.116012 38.871061 -164.831256 145.54353 13.244203 142.150065 76.273898 -52.929481 75.879618 -179.993989 75.749613 -0.006202 165.756619 6.915715 -102.525823 -83.821124 -12.407973 -110.580747 89.172354 48.386292 -175.816021 -179.99866 75.750765 -0.0 -139.112168 82.498806 -70.847908 -20.517787 34.280704 92.357169 44.70648 -34.121963 -4.278763
